<svg xmlns="http://www.w3.org/2000/svg" viewBox="0 0 64 64">
  <defs>
    <linearGradient id="grad" x1="0%" y1="0%" x2="100%" y2="100%">
      <stop offset="0%" stop-color="#2563eb" />
      <stop offset="100%" stop-color="#1d4ed8" />
    </linearGradient>
  </defs>
  <rect width="64" height="64" rx="14" fill="url(#grad)" />
  <path
    d="M32 14c-6.9 0-12 4.25-12 10.74 0 4.46 2.54 7.68 6.52 9.23l-5.28 15.94h7l3.3-10.32h1.92l3.3 10.32h6.98l-5.24-15.82c4.1-1.5 6.5-4.8 6.5-9.35C44 18.1 38.94 14 32 14zm0 6c3.26 0 5.5 1.92 5.5 4.88 0 2.9-2.24 4.82-5.5 4.82s-5.5-1.92-5.5-4.82C26.5 21.92 28.74 20 32 20z"
    fill="#f8fafc"
  />
</svg>
